<?xml version="1.0" encoding="utf-8"?>
<!-- Generator: Adobe Illustrator 15.1.0, SVG Export Plug-In . SVG Version: 6.00 Build 0)  -->
<!DOCTYPE svg PUBLIC "-//W3C//DTD SVG 1.1//EN" "http://www.w3.org/Graphics/SVG/1.1/DTD/svg11.dtd">
<svg version="1.1" id="Layer_1" xmlns="http://www.w3.org/2000/svg" xmlns:xlink="http://www.w3.org/1999/xlink" x="0px" y="0px"
	 width="411px" height="411px" viewBox="0 0 411 411" enable-background="new 0 0 411 411" xml:space="preserve">
<g id="Layer_2_1_" display="none">
	<g id="Layer_2" display="inline">
		<rect x="306.5" y="178.5" fill="#2ECC71" width="411" height="411"/>
	</g>
</g>
<g id="Layer_1_2_">
	<g id="Layer_3">
	</g>
	<g id="Layer_1_1_">
		<g>
			<path fill="#FFFFFF" d="M187.706,213.07h-30.588v-59.217l-17.852,59.217h-23.619l-20.465-59.217v59.217H68.407V107.583h44.084
				l15.674,54.73l13.607-54.73h45.936V213.07H187.706z"/>
		</g>
		<g>
			<path fill="#FFFFFF" d="M50.712,232.633H36.604v26.915h12.621v12.069H36.604v47.727h-16.16v-99.477h30.268V232.633
				L50.712,232.633z"/>
			<path fill="#FFFFFF" d="M52.868,303.458v-48.213c0-11.331,5.797-16.995,17.391-16.995c4.48,0,8.422,1.316,11.826,3.953
				c3.402,2.638,5.104,6.754,5.104,12.35v49.599c0,10.868-5.643,16.301-16.93,16.301C58.663,320.453,52.868,314.789,52.868,303.458z
				 M72.567,304.013v-49.321c0-2.636-0.838-3.954-2.516-3.954c-1.711,0-2.564,1.317-2.564,3.954v49.321
				c0,2.729,0.854,4.093,2.564,4.093C71.729,308.105,72.567,306.742,72.567,304.013z"/>
			<path fill="#FFFFFF" d="M89.854,303.458v-48.213c0-11.331,5.797-16.995,17.393-16.995c4.48,0,8.42,1.316,11.824,3.953
				c3.404,2.638,5.104,6.754,5.104,12.35v49.599c0,10.868-5.643,16.301-16.928,16.301C95.651,320.453,89.854,314.789,89.854,303.458
				z M109.556,304.013v-49.321c0-2.636-0.838-3.954-2.514-3.954c-1.711,0-2.564,1.317-2.564,3.954v49.321
				c0,2.729,0.854,4.093,2.564,4.093C108.716,308.105,109.556,306.742,109.556,304.013z"/>
			<path fill="#FFFFFF" d="M161.37,319.344H150.3l-1.234-2.706c-2.504,2.544-5.35,3.815-8.539,3.815c-3.74,0-6.92-1.179-9.543-3.538
				s-3.936-5.572-3.936-9.643v-57.854c0-3.421,1.037-6.14,3.111-8.149c2.076-2.013,4.586-3.018,7.537-3.018
				c4.045,0,7.063,0.994,9.051,2.98v-21.363h14.621v99.475H161.37z M146.749,304.291v-50.017c0-2.357-0.84-3.538-2.514-3.538
				c-1.711,0-2.566,1.226-2.566,3.678v49.877c0,2.451,0.855,3.676,2.566,3.676C145.911,307.967,146.749,306.742,146.749,304.291z"/>
		</g>
		<g>
			<path fill="#FFFFFF" d="M163.589,280.225h18.457v23.585c0,2.343,1.279,3.513,3.842,3.513c2.473,0,3.709-1.17,3.709-3.513v-12.187
				c0-3.729-2.236-8.103-6.713-13.119c-8.645-9.319-14.025-15.58-16.133-18.783c-2.107-3.201-3.162-6.713-3.162-10.538v-11.542
				c0-13.334,7.842-20.001,23.525-20.001c14.047,0,21.068,6.069,21.068,18.209v17.777h-18.457v-18.925
				c0-2.055-1.031-3.084-3.092-3.084c-2.414,0-3.621,1.984-3.621,5.951l0.391,6.666c0,3.824,2.283,8.271,6.854,13.334
				c8.498,9.033,13.9,15.343,16.207,18.928c2.309,3.583,3.459,7.646,3.459,12.188v13.117c0,13.67-7.861,20.503-23.586,20.503
				c-15.166,0-22.748-6.212-22.748-18.638V280.225L163.589,280.225z"/>
			<path fill="#FFFFFF" d="M250.452,321.373h-11.617c-8.303,0-13.271-1.386-14.906-4.157s-2.451-8.103-2.451-15.987v-50.756h-8.195
				v-12.33h8.195v-16.775h18.393v16.774h9.938v12.33h-9.938v50.613c0,2.437,0.656,4.075,1.969,4.91
				c1.313,0.837,4.184,1.253,8.615,1.253v14.124L250.452,321.373L250.452,321.373z"/>
			<path fill="#FFFFFF" d="M253.55,304.957v-49.823c0-11.711,7.291-17.565,21.879-17.565c5.635,0,10.594,1.363,14.873,4.088
				c4.281,2.726,6.424,6.979,6.424,12.761v51.256c0,11.231-7.1,16.848-21.297,16.848C260.841,322.521,253.55,316.667,253.55,304.957
				z M278.331,305.53v-50.972c0-2.724-1.055-4.086-3.162-4.086c-2.15,0-3.227,1.362-3.227,4.086v50.972
				c0,2.82,1.074,4.229,3.227,4.229C277.276,309.76,278.331,308.351,278.331,305.53z"/>
			<path fill="#FFFFFF" d="M343.958,272.625h-18.395v-18.066c0-2.53-1.055-3.799-3.162-3.799c-2.109,0-3.162,1.219-3.162,3.657
				v66.956h-16.285l-0.283-96.939h16.568l1.195,16.506c2.449-2.246,5.043-3.369,10.164-3.369c3.654,0,6.797,1.086,9.42,3.262
				c2.625,2.175,3.938,5.029,3.938,8.566v23.227H343.958z"/>
			<path fill="#FFFFFF" d="M390.556,286.103h-24.652v19.428c0,2.82,1.055,4.229,3.162,4.229c2.063,0,3.098-1.409,3.098-4.229
				v-16.775h18.393v16.92c0,11.229-7.205,16.847-21.617,16.847c-14.285,0-21.428-5.854-21.428-17.563v-49.823
				c0-11.711,7.143-17.565,21.428-17.565c14.412,0,21.617,5.617,21.617,16.849V286.103z M372.163,273.628v-19.069
				c0-2.724-1.033-4.086-3.098-4.086c-2.105,0-3.162,1.362-3.162,4.086v19.069H372.163z"/>
		</g>
		<path fill="#FFFFFF" d="M319.065,225.092l-3.314-33.187c0,0,17.137-3.865,20.227-15.705c3.086-11.84-3.963-83.813-3.963-83.813
			l-5.033,0.357l-0.912,71.949l-5.594,0.157l0.99-71.725l-6.889,0.135l-1.715,71.358l-6.023-0.12l0.996-72.27l-7.064-0.208
			l-0.357,72.063l-6.461-0.484l0.865-71.562l-6.168,1.048c0,0-7.869,70.508-6.051,81.26c1.816,10.752,20.203,18.463,20.203,18.463
			l-0.59,32.276L319.065,225.092z"/>
		<g>
			<path fill="#FFFFFF" d="M191.033,139.827l1.514-6.649c0.504-2.272,1.404-4.129,2.691-5.569c1.291-1.438,3.547-3.021,6.77-4.746
				c3.223-1.724,8.229-4.176,15.01-7.358c16.314-7.691,29.014-11.537,38.096-11.537c2.746,0,4.693,0.379,5.844,1.138
				c1.15,0.758,1.725,2.083,1.725,3.977c0,1.328-0.742,3.146-2.229,5.457c-1.486,2.313-4.203,5.968-8.156,10.969
				s-7.441,9.49-10.469,13.469c-2.469,3.26-5.271,6.715-8.41,10.372c-3.141,3.657-5.242,6.167-6.307,7.531
				c-1.066,1.364-1.598,2.387-1.598,3.067c0,0.76,0.363,1.412,1.094,1.961c0.727,0.551,1.625,0.824,2.689,0.824
				c1.459,0,3.1-0.529,4.92-1.591c1.822-1.062,5.395-3.354,10.723-6.877c2.576-1.742,5.342-3.808,8.281-6.194
				c2.943-2.387,6.604-5.455,10.975-9.207c4.373-3.75,8.41-7.235,12.111-10.457c2.297-2.007,4.371-3.808,6.221-5.398
				c1.852-1.592,3.436-2.813,4.754-3.666c1.314-0.854,2.367-1.279,3.15-1.279c0.676,0,1.768,0.568,3.279,1.706l2.02,1.761
				c1.514,1.441,2.27,2.482,2.27,3.127c0,0.758-2.088,3.531-6.264,8.324c-4.178,4.793-7.725,8.942-10.639,12.446
				c-2.914,3.505-6.686,8.563-11.311,15.174c-4.625,6.612-9.066,13.953-13.328,22.021c11.379-5.795,19.172-9.668,23.377-11.62
				c4.205-1.951,7.26-2.927,9.168-2.927c1.289,0,1.936,0.36,1.936,1.078c0,0.797-0.619,1.829-1.854,3.1
				c-1.234,1.27-2.887,2.67-4.961,4.203c-2.074,1.535-5.199,3.753-9.377,6.65c-4.176,2.897-8.732,6.033-13.664,9.405
				c-3.027,2.083-5.971,4.508-8.83,7.274c-2.859,2.766-5.074,4.906-6.643,6.421c-1.57,1.515-3,2.388-4.289,2.613
				c-1.906,0.379-3.646,0.094-5.213-0.853c-1.57-0.947-2.355-2.442-2.355-4.489c0-1.439,1.08-4.413,3.238-8.922
				c2.158-4.51,5.424-10.116,9.795-16.822c2.578-4.016,5.215-7.813,7.906-11.395c2.689-3.58,5.787-7.521,9.293-11.821
				c3.502-4.3,6.938-8.382,10.301-12.247c3.363-3.863,6.223-7.16,8.578-9.888c-5.607,4.964-11.172,9.784-16.695,14.464
				c-5.52,4.68-11.688,9.604-18.5,14.775c-6.811,5.173-13.691,10.013-20.643,14.521c-3.029,1.934-5.201,3.248-6.52,3.949
				c-1.316,0.701-3.041,1.053-5.172,1.053c-1.346,0-2.648-0.314-3.91-0.938c-1.26-0.624-2.313-1.439-3.152-2.444
				c-0.84-1.003-1.262-1.979-1.262-2.926c0-1.593,0.35-2.993,1.051-4.206c0.699-1.213,1.92-3.03,3.66-5.456
				c7.621-10.419,13.172-17.562,16.648-21.425c12.445-13.488,18.67-21.047,18.67-22.676c0-0.53-0.281-0.957-0.844-1.278
				c-0.559-0.321-1.26-0.483-2.102-0.483c-1.568,0-3.447,0.465-5.635,1.393c-2.184,0.929-4.932,2.302-8.238,4.119
				c-3.311,1.819-7.33,4-12.068,6.537c-4.738,2.539-9.711,4.963-14.926,7.274c-2.074,0.909-4.414,1.989-7.021,3.238
				c-2.605,1.251-4.105,1.876-4.5,1.876c-0.785,0-1.176-0.266-1.176-0.797C190.529,142.46,190.697,141.418,191.033,139.827z"/>
		</g>
	</g>
</g>
</svg>
