<?xml version="1.0" encoding="utf-8"?>
<!-- Generator: Adobe Illustrator 15.1.0, SVG Export Plug-In . SVG Version: 6.00 Build 0)  -->
<!DOCTYPE svg PUBLIC "-//W3C//DTD SVG 1.1//EN" "http://www.w3.org/Graphics/SVG/1.1/DTD/svg11.dtd">
<svg version="1.1" id="Layer_1" xmlns="http://www.w3.org/2000/svg" xmlns:xlink="http://www.w3.org/1999/xlink" x="0px" y="0px"
	 width="928.571px" height="1000px" viewBox="0 0 928.571 1000" enable-background="new 0 0 928.571 1000" xml:space="preserve">
<g>
	<path fill="#9B26AF" d="M392.832,214.336c-68.82,0-127.689,24.459-176.607,73.377S142.848,395.5,142.848,464.32
		c0,68.818,24.459,127.688,73.377,176.605s107.787,73.377,176.607,73.377s127.69-24.459,176.608-73.377
		s73.377-107.787,73.377-176.605c0-68.82-24.459-127.689-73.377-176.607C520.52,238.795,461.652,214.336,392.832,214.336z"/>
	<path fill="#FFFFFF" d="M907.866,878.356L716.471,686.962c46.129-66.588,69.193-140.802,69.193-222.642
		c0-53.196-10.324-104.067-30.969-152.613c-20.646-48.546-48.547-90.396-83.701-125.55c-35.154-35.154-77.004-63.054-125.549-83.7
		c-48.547-20.646-99.417-30.969-152.615-30.969s-104.067,10.323-152.613,30.969c-48.546,20.646-90.396,48.546-125.55,83.7
		c-35.154,35.154-63.054,77.004-83.7,125.55S0,411.124,0,464.32c0,53.194,10.323,104.065,30.969,152.611
		c20.646,48.548,48.546,90.396,83.7,125.552c35.154,35.152,77.004,63.054,125.55,83.698c48.546,20.646,99.417,30.971,152.613,30.971
		c81.84,0,156.053-23.064,222.641-69.192l191.395,190.836C820.26,992.932,837,1000,857.088,1000
		c19.344,0,36.084-7.068,50.219-21.204c14.137-14.136,21.205-30.876,21.205-50.22C928.512,908.86,921.629,892.12,907.866,878.356z
		 M569.44,640.927c-48.918,48.918-107.788,73.377-176.608,73.377s-127.689-24.459-176.607-73.377S142.848,533.14,142.848,464.32
		c0-68.82,24.459-127.689,73.377-176.607s107.787-73.377,176.607-73.377s127.688,24.459,176.608,73.377
		c48.918,48.918,73.377,107.787,73.377,176.607C642.817,533.14,618.358,592.009,569.44,640.927z"/>
</g>
</svg>
